<?xml version="1.0" encoding="UTF-8"?>
<svg id="_Ñëîé_4" data-name="Ñëîé 4" xmlns="http://www.w3.org/2000/svg" viewBox="0 0 9043.84 12565.95">
  <defs>
    <style>
      .cls-1 {
        stroke-width: 0px;
      }
    </style>
  </defs>
  <path class="cls-1" d="M3922.54,10899.1c-6.43-39.17-30.85-160.9-56.71-289.78-27.63-137.71-56.19-280.12-62.49-320.66-4.99-32.04-7.63-71.41-10.43-113.1-3.96-58.93-8.05-119.87-19.29-165.29-18.62-75.27-110.2-591-127.27-716.67-18.87-138.96-108.57-752.65-136.45-859.23-13.39-51.19-52.27-194-93.42-345.22-46.14-169.5-93.86-344.78-108.15-400.17-28.15-109.03-59.66-266.09-53.45-514.99.72-29.18,1.59-63.41,2.55-101.32,7.61-300.96,20.35-804.69,18.25-900.49-1.1-50.35-8.56-132.06-16.46-218.57-9.18-100.63-19.59-214.68-22.6-306.1-2.57-78.29-17.48-204.42-40.92-346.04-21.76-131.52-45.8-245.49-62.75-297.44-34.45-105.63-101.13-344.13-113.25-405.08-9.46-47.57,31.12-204.29,55.37-297.93,6.35-24.53,11.84-45.73,15.01-59.48,3.36-14.63,11.53-49.45,22.84-97.66,35.39-150.83,97.83-417.02,124.72-540.27,1.43,85.91,3.19,179.43,4.92,271.89,4.86,258.88,9.45,503.41,6.14,538.58-5.64,59.84-18.7,314.17,20.38,465.2,41.41,160.03,190.09,777.37,174.18,843.81-10.23,33.33-21.5,60.91-32.4,87.59-19.49,47.69-37.89,92.74-46.42,161.66l-.03.27c-2.31,34.49-11.29,149.78-19.21,251.5-5.18,66.5-10.07,129.32-12.02,155.77-2.41,32.79,10.16,38.28,15.68,39.13.75.12,1.51.17,2.27.17,16.38,0,33.75-26.31,42.9-65.59,3.02-12.99,6.03-31.74,9.52-53.45,8.17-50.96,19.34-120.68,40.09-171.91,1.58,4.78,2.95,10.17,4.11,16.13,0,0,0,.02,0,.03,4.29,37.34-29.89,206.63-37.16,228.11-5.82,17.16-46.29,70.47-75.85,109.39-9.45,12.44-17.61,23.19-23.76,31.58-26.84,36.59-23.74,79.84-9.83,96.23-1.82,9.44-1.69,17.13.39,23.13l2.35,6.82,5.4-4.78c29.7-26.33,157.2-178.38,190.75-221.65,26.98-34.8,49.14-122.68,65.34-186.85,4.19-16.61,7.8-30.95,10.88-41.77,12.44-43.82,23.98-211.04,34.16-358.58,1.88-27.35,3.66-53.17,5.4-77.45l.04-.58-.1-.58c-19.95-116.59-42.76-712.92-43.63-846.73-.9-136.51-8.21-227.63-26.06-325.01-15.14-82.57-18.88-231.11-21.61-339.57-.4-15.81-.78-30.74-1.17-44.47-2.21-78.57,7.15-382.13,14.67-626.06,2.71-87.84,5.26-170.8,6.82-228.97.84-31.05,2.09-61.54,3.3-91.03,3.56-86.37,6.93-167.95-2.16-233.62-10.2-73.66-35.05-120.93-78.21-148.8-32.85-21.2-82.99-34.12-136.08-47.78-40.38-10.4-82.14-21.15-117.91-36.09-68.5-28.63-353.82-152-402.83-184.22-16.75-11.02-28.83-47.19-35.9-107.51-6.37-54.31-8.02-121-9.49-179.86-.63-25.53-1.23-49.68-2.16-71.42,48-50.26,91.09-105.74,111.92-144.46,19.32-35.92,31.26-101.25,38.57-163.52,5.63-.13,12.33-2.44,19.29-9.58,26.36-27.06,40.45-106.47,45.27-139.36,8.68-59.09,10.32-115,3.89-132.94-6.38-17.78-14.25-26.88-24.05-27.84-9.74-.94-20.05,6.42-31.88,23-.18-5.39-.29-11.47-.4-18.5-.92-54-2.64-154.5-46.98-242.35-54.29-107.55-156.4-166.07-303.51-173.96-5.32-.31-23.51-.23-28.99.34-145.44,15.1-243.98,78.06-292.88,187.15-39.96,89.14-37.09,188.92-35.56,242.52.21,7.03.39,13.11.45,18.52-12.6-16.02-23.22-22.92-32.9-21.53-9.76,1.41-17.2,10.86-22.75,28.91-5.61,18.21-1.42,73.99,9.95,132.63,6.33,32.63,24.01,111.32,51.6,137.14,7.07,6.63,13.7,8.71,19.23,8.71.16,0,.33,0,.48,0,10.14,61.87,25.05,126.59,45.99,161.58,21.34,35.67,63.84,86.34,110.95,132.69,3.64,186.5-7.3,303.63-30.84,329.95-37.54,41.97-154.53,131.18-276.53,189.5-110.32,52.74-187.96,74.37-263.05,95.29-5.87,1.64-11.71,3.27-17.56,4.9-28.39,7.96-51.99,19.81-72.17,36.25-21.56,17.56-38.71,39.91-52.45,68.31-28.49,58.93-41.53,144.4-39.85,261.28,2.23,155.21,10.61,349,17.36,504.71,3.52,81.25,6.56,151.41,7.65,193.17,3,114.33,5.69,505.68-9.96,578.64-7.18,33.46-18.74,68.53-29.9,102.46-13.39,40.63-27.23,82.66-34.27,123.59-6.9,40.05-25.75,169.91-43.96,295.48-15.9,109.54-32.34,222.82-40.62,274.92-12.18,76.62-40.48,214.94-64.41,314.92-2.11,7.98-5.72,18.73-9.9,31.19-9.67,28.83-21.71,64.7-23.95,92.3-10.67,129.57-18.32,246.21-23.38,356.58v.25c.04,6.59.06,15.84.07,25.3.05,25.99.1,38.45.36,40.52,1.97,15.58,6.93,58.5,10.92,92.99,2.15,18.64,4.02,34.73,4.84,41.56,4.1,34.3,10.58,63.36,20.34,91.41,2.13,6.42,5.35,12.25,8.45,17.9,1.11,2.01,2.15,3.91,3.14,5.82l.15.28c43.89,72.5,87.53,143.84,139.01,219.58l.13.18c4.81,6.42,8.97,11.97,14.25,18.63.04.06.09.11.13.15l4.62,5.84.13-.23.13.17,3.18-6.65c.71-1.4,1.57-3.09,2.04-4.79,1.31-3.56,2.28-7.71,2.17-12.58v-.15c-.11-1.83-.23-3.64-.4-5.44,15.98-14.4,25.02-56.6,3.73-96.48-4.9-9.17-11.46-20.97-19.05-34.63-23.73-42.72-56.24-101.24-59.57-119.04-4.4-23.57-16.62-133.71-12.95-159.39h-.07c2.94-25.02,6.5-49.91,10.56-71.84,4.63,13.52,8.4,28.95,11.37,46.34,7.58,44.49,8.2,92.62,8.69,131.28.17,12.94.33,25.16.74,35.28l.08.66c.75,4.14,1.35,8.55,1.97,13.22,3.02,22.48,6.43,47.94,29.95,57.71,1.49.79,3.07,1.18,4.72,1.18,2.3,0,4.7-.78,7.06-2.32,2.75-1.8,5.35-4.62,7.15-7.75,3.24-5.62,4.96-11.9,4.75-17.3,13.08-157.93,22.26-299.82,28.05-433.74.78-18.31-1.05-35.83-2.98-54.37l-.43-4.22-.06-.37c-.96-5.36-1.72-10.62-2.45-15.73-1.35-9.39-2.61-18.26-5.11-27.53-3.12-12.11-6.27-24.67-9.3-36.81-3.03-12.12-6.17-24.65-9.3-36.75-1.39-7-2.91-13.96-4.38-20.69-2.82-12.87-5.48-25.03-7.22-37.43-.7-9.2,2.45-26.06,5.49-42.35.58-3.1,1.17-6.23,1.72-9.31,16.38-86.24,54.95-202.21,97.44-316.19-10.27,32.43-18.75,61.94-25.16,87.18-17.45,68.79-20.05,170.37-7.72,301.91,10.52,112.12,29.59,219.03,36.78,259.28,18.47,103.48,115.81,530.27,148.24,665.42,31.01,129.23,131.17,621.58,137.91,718.86,6.92,99.88,15.7,306.96,17.06,343.81.24,6.45.83,24.12,1.64,48.57,4.61,139.86,16.89,511.38,23.78,590.06,8.19,93.5,140.7,882.58,154.72,964.66,16.5,96.56,65.62,491.45,65.34,589.06-.29,99.26-50.95,350.5-75.43,456.62-8.56,37.08-21.77,80.56-35.75,126.6-28.26,93.01-57.48,189.19-48.06,236.03,6.49,32.27,30.11,109.73,62.29,180.9,17.43,38.57,34.73,69.45,51.4,91.79,20.37,27.3,39.83,41.58,57.84,42.45.67.03,1.35.05,2.03.05,21.11,0,45.88-15.61,75.61-47.63,19.85-21.37,41.64-49.92,66.62-87.27,2.76-4.12,5.54-8.2,8.31-12.27,29.82-43.86,60.67-89.2,57.56-174.7-3.38-93.28-.91-729.26,1.17-828.92,1.66-79.73-26.48-456.18-45.09-705.28-6.51-87.16-11.66-156-13.74-188.27-6.19-96.52-3.83-444.9-2.27-675.43.41-61.26.77-114.17.87-148.84.22-83.72-20.52-241.33-38.81-380.39-17.03-129.43-33.11-251.68-29.58-292.42,4.98-57.32,6.63-129.44,8.38-205.8.89-38.76,1.8-78.84,3.2-119.92,1.52-45.04,3.14-151.05,5.01-273.78,3.4-223.12,7.63-500.81,14.28-643.07,10.37-221.52-7.88-353.92-22.68-450.77,20.27,16.94,48.16,25.05,81.65,23.59,27.76-1.21,58.83-9.19,84.57-21.57,10.02,103.18,43.94,238.36,71.33,347.47,14.93,59.49,27.83,110.88,32.66,141.21,9.18,57.51,38.11,176.79,63.62,282.03,13.01,53.67,25.3,104.37,34.02,142.84,12.14,53.55,42.2,191.1,74.03,336.72,35.88,164.15,72.98,333.89,85.1,386.39,14.44,62.54,31.51,124.47,48.01,184.35,9.56,34.7,19.46,70.57,28.87,106.65,14.2,54.41,51.62,234,84.64,392.44,27.38,131.38,53.25,255.47,63.51,297.27,14.87,60.62,62.47,198.41,108.49,331.65,24.58,71.15,47.8,138.37,64.51,189.49,46.67,142.78,247.88,944.85,275.54,1070.2,5.27,50.29,6.56,209.15,3.46,425.16-2.63,183.67-7.82,359.63-11.8,400.6-7.62,78.28,47.55,223.77,74.05,293.68,2.12,5.61,4.06,10.72,5.78,15.3,9.09,24.24,23.12,39.28,41.68,44.71,5.34,1.56,10.67,2.23,15.92,2.23,24.36,0,46.7-14.45,56.33-21.67,42.22-31.64,91.17-86.05,127.73-141.99,24.38-37.32,64.03-107.6,55.54-159.19ZM3304.49,6596.87c-2.93-6.76-4.47-16.03-4.11-25.96.65-18.07,7.18-36.44,18.38-51.72,6.11-8.32,14.25-19.04,23.67-31.45,31.62-41.65,70.98-93.49,77.3-112.13,5.8-17.11,23.93-104.51,32.88-169-.03,20.67-1.29,43.66-3.81,68.22-6.36,61.83-19.66,119.98-30.95,135.28l-1.5,2.04c-13.66,18.5-45.65,61.82-72.76,106.28-19.74,32.37-32.72,58.4-39.09,78.44ZM2926.77,1658.52c15.82-25.89,25.31-30.82,30.54-30.32,5.57.54,11.07,7.98,15.91,21.5,5.77,16.09,3.85,72.44-4.34,128.29-9.78,66.56-25.72,116.67-42.64,134.03-3.8,3.9-7.53,6.09-11.29,6.57,1.92-17.3,3.48-34.23,4.75-50.08,6.2-77.24,7.98-157.56,7.07-210ZM2230.97,1925.44c-17.7-16.58-35.92-65.89-48.72-131.93-10.75-55.42-15.23-111.63-10.2-127.97,4.22-13.73,9.38-21.4,14.91-22.2,5.2-.74,14.92,3.75,31.89,28.89h0c1.49,52.44,6.94,132.59,16.66,209.47,1.99,15.78,4.32,32.62,7.03,49.81-3.77-.32-7.59-2.33-11.58-6.06ZM2298.36,2097.81c-47.86-80.01-67.2-328.29-69.94-428.52v-.09c-.13-5.02-.23-9.67-.29-13.91-.07-5.5-.25-11.65-.45-18.75-3.02-105.43-11.07-385.48,319.81-419.82,3.02-.32,10.98-.46,17.73-.46,4.16,0,7.87.06,9.71.16h.02c334.75,17.93,339.57,300.48,341.38,406.85.13,7.11.23,13.25.4,18.75.14,4.24.26,8.88.35,13.91v.07c1.84,100.23-6.12,349.16-50.29,431.28-22.13,41.14-70.08,101.78-122.15,154.46-59.48,60.18-114,99.43-149.58,107.68l-.12.03c-2.82.73-11.89.34-20.26-1.95-36.83-10.06-92.27-48.21-152.09-104.67-52.31-49.39-101.09-106.31-124.25-145.02ZM1522.56,6371.24c3.61,19.34,35.22,76.23,60.62,121.95,7.57,13.62,14.11,25.38,18.98,34.48,8.92,16.71,12.78,35.82,10.87,53.81-1.05,9.84-3.87,18.76-7.72,25.03-3.76-23.66-11.69-44.91-19.69-64.86l-.09-.21c-3.3-7.2-6.22-14.27-9.05-21.09-2.86-6.91-5.82-14.04-9.19-21.41l-.07-.14c-3.13-6.29-6.16-12.44-9.14-18.51-11.43-23.26-22.24-45.23-35.9-68.9-6.34-11.58-8.34-23.44-10.3-37.71-1.58-15.36-1.57-29.34-1.56-44.15,0-3.9,0-7.85-.03-11.89.38-10.36,1.01-22.09,1.88-34.66,3.21,36.73,7.91,75.01,10.39,88.27ZM3733.48,11192.57c-21.96,16.46-45.8,23.16-63.77,17.9-15.5-4.53-27.4-17.6-35.37-38.85-1.71-4.58-3.66-9.72-5.79-15.33-26.25-69.24-80.87-213.3-73.48-289.34,4.01-41.19,9.21-217.5,11.85-401.4,1.49-104.08,4.14-354.01-3.54-426.58l-.09-.53c-27.46-124.61-229.09-928.34-275.85-1071.39-16.73-51.2-39.95-118.44-64.55-189.64-45.96-133.03-93.48-270.61-108.25-330.79-10.22-41.64-36.06-165.66-63.43-296.96-34.66-166.29-70.49-338.25-84.75-392.89-9.43-36.15-19.33-72.06-28.9-106.78-16.48-59.79-33.52-121.61-47.92-183.96-12.11-52.45-49.2-222.16-85.07-386.29-31.83-145.64-61.91-283.2-74.05-336.79-8.74-38.54-21.04-89.27-34.06-142.98-25.47-105.06-54.34-224.14-63.46-281.27-4.91-30.75-17.85-82.32-32.84-142.03-27.73-110.48-62.19-247.78-71.53-350.79,90.91-89.41,287.68-162.93,346.1-183.42l-3.19-9.09c-65.73,23.06-132.61,51.16-188.33,79.12-72.6,36.44-127.24,72.64-162.42,107.62-44.12,23.1-128.79,41.37-170.63-7.12-54.44-85.78-183.7-211.4-288.36-280.2l-5.29,8.05c103.48,68.02,231.15,191.97,285.18,276.78,15.03,97.62,35.45,231.31,24.65,462.23-6.67,142.41-10.9,420.17-14.3,643.36-1.87,122.7-3.49,228.66-5.01,273.61-1.39,41.14-2.31,81.25-3.2,120.04-1.74,76.19-3.39,148.16-8.34,205.18-3.62,41.78,11.79,158.9,29.63,294.5,18.25,138.76,38.94,296.05,38.72,379.11-.1,34.65-.45,87.55-.87,148.8-1.56,230.67-3.92,579.26,2.29,676.11,2.08,32.33,7.22,101.19,13.74,188.37,18.61,248.92,46.72,625.1,45.07,704.37-2.08,99.71-4.55,736.1-1.16,829.47,2.99,82.36-25.62,124.41-55.91,168.93-2.78,4.09-5.58,8.2-8.35,12.34-58.96,88.15-104.63,132.08-135.8,130.59-28.2-1.36-64.05-47.03-100.93-128.58-31.87-70.48-55.22-147-61.62-178.83-8.95-44.45,19.91-139.46,47.81-231.33,14.03-46.19,27.29-89.82,35.92-127.22,24.57-106.47,75.39-358.68,75.68-458.76.28-98.01-48.93-493.94-65.47-590.7-14.02-82.05-146.46-870.68-154.63-963.88-6.88-78.42-19.14-449.74-23.75-589.54-.81-24.46-1.39-42.14-1.63-48.6-1.37-36.87-10.16-244.12-17.08-344.12-6.77-97.67-107.1-591.02-138.16-720.44-32.41-135.08-129.68-561.55-148.13-664.87-46.73-261.86-56.55-449.3-29.21-557.13,38.3-150.95,151.39-454.5,272.54-626.64,35.92-51.05,72.92-99.59,105.57-142.42,76.35-100.18,136.65-179.3,138.99-230.17,2.94-64.19-148.31-577.95-221-824.86-8.64-29.33-16.1-54.67-21.97-74.74l-.99.29c.3-130.35.37-232.15-.06-267.11l-9.63.12c.77,63.56-.1,348.48-.93,624.01-.79,262.16-1.54,509.79-.75,532.89,1.39,40.82-13.7,145.63-21.8,201.95-1.14,7.89-2.14,14.83-2.94,20.52-17.09,121.71-58.59,265.28-120.03,415.18-66.17,161.46-176.92,431.68-208.08,595.86-.57,3.1-1.15,6.2-1.72,9.3-3.32,17.79-6.46,34.59-5.62,45.04l.04.28c1.79,12.82,4.62,25.77,7.37,38.3,1.47,6.72,3,13.68,4.36,20.62l.07.27c3.12,12.12,6.27,24.68,9.31,36.82,3.04,12.17,6.19,24.75,9.33,36.93,2.35,8.75,3.58,17.34,4.88,26.43.73,5.14,1.49,10.45,2.48,15.91l.42,4.05c1.89,18.18,3.67,35.35,2.92,52.96-5.78,133.88-14.96,275.74-28.05,433.67l-.03.33.02.34c.2,3.61-1.09,8.21-3.45,12.31-1.04,1.81-2.61,3.53-4.09,4.51-.73.48-1.64.88-2,.66l-.59-.28c-18.59-7.58-21.49-29.24-24.3-50.18-.63-4.65-1.22-9.06-1.98-13.32-.4-9.93-.56-21.96-.72-34.68-1-78.8-2.52-197.89-61.47-243.69l-5.91,7.61c12.52,9.74,22.87,23.63,31.15,41.95-12.06,57.65-20.51,143.71-22.36,195.77v.11s0,.1,0,.1c.03,4.05.03,8,.03,11.91,0,15.08-.02,29.33,1.62,45.21l.02.16c2.1,15.34,4.28,28.11,11.43,41.17l.05.1c13.51,23.4,24.26,45.24,35.63,68.38,2.98,6.05,5.99,12.19,9.12,18.48,3.28,7.19,6.19,14.23,9.02,21.03,2.85,6.87,5.79,13.98,9.14,21.31,9.71,24.24,19.31,50.4,20.98,80.16.04,1.82-.13,3.5-.46,5.1-2.97-3.86-5.75-7.57-8.79-11.63-51.29-75.46-94.83-146.61-138.59-218.92-1.02-1.97-2.12-3.95-3.17-5.88-2.9-5.28-5.9-10.73-7.78-16.37-9.56-27.44-15.87-55.86-19.9-89.45-.81-6.82-2.67-22.91-4.83-41.53-3.99-34.51-8.96-77.46-10.93-93.06-.21-2.21-.25-22.81-.28-39.36,0-9.43-.03-18.64-.07-25.24,5.05-110.21,12.69-226.69,23.35-356.1,2.14-26.43,13.97-61.7,23.47-90.01,4.24-12.65,7.91-23.57,10.09-31.86l.03-.11c23.99-100.2,52.35-238.86,64.57-315.7,8.3-52.16,24.75-165.47,40.64-275.05,18.21-125.51,37.05-255.31,43.92-295.22,6.93-40.23,20.65-81.91,33.93-122.23,11.25-34.16,22.89-69.48,30.18-103.44,16.72-77.95,12.71-484.14,10.17-580.91-1.1-41.84-4.13-112.04-7.66-193.33-6.73-155.65-15.12-349.36-17.35-504.44-1.66-115.35,11.06-199.39,38.89-256.93,25.28-52.28,62.95-83.9,118.55-99.48,5.84-1.64,11.68-3.27,17.55-4.9,75.48-21.03,153.54-42.78,264.61-95.87,123.14-58.86,241.47-149.2,279.56-191.78,15.68-17.53,25.71-65.17,30.65-145.63,3.06-49.96,4.01-110.88,2.82-181.2,1.71,1.63,3.43,3.27,5.14,4.88,35.8,33.8,103.7,92.63,156.16,106.96,6.18,1.69,13.17,2.62,18.66,2.62,2.56,0,4.8-.2,6.47-.63,51.07-11.88,118.53-74.19,154.2-110.28.87-.88,1.74-1.76,2.61-2.65.72,19.22,1.24,40.16,1.79,62.1,3.1,125.07,6.62,266.83,49.72,295.16,49.57,32.59,335.75,156.37,404.41,185.06,36.41,15.22,78.5,26.06,119.22,36.54,52.3,13.47,101.71,26.19,133.24,46.54,40.63,26.23,64.11,71.36,73.89,142.03,8.97,64.82,5.63,145.98,2.08,231.91-1.21,29.51-2.48,60.04-3.3,91.16-1.56,58.16-4.12,141.1-6.83,228.93-7.52,244.05-16.89,547.76-14.66,626.62.39,13.73.76,28.65,1.16,44.44,2.74,108.78,6.48,257.76,21.76,341.06,17.74,96.79,25.01,187.44,25.9,323.34.88,133.76,23.69,729.34,43.67,847.71-1.72,24.13-3.5,49.76-5.37,76.9-9.64,139.79-21.65,313.76-33.81,356.62-3.11,10.95-6.74,25.35-10.95,42.04-15.07,59.77-37.86,150.1-63.6,183.3-31.32,40.41-144.73,175.89-182.95,214.07.1-14.83,9.01-43.32,42.31-97.95,26.88-44.1,58.7-87.18,72.28-105.58l1.51-2.04c12.58-17.04,26.06-74.62,32.77-140.02,3.58-34.86,9.73-119.33-9.29-160.08,6.81-14.55,14.55-27.09,23.42-36.58l-7.04-6.57c-42.48,45.51-59.89,154.16-71.42,226.05-3.45,21.53-6.42,40.12-9.38,52.79-10.07,43.21-27.35,59.15-34.35,58.07-4.59-.7-8.9-10.04-7.51-28.89,1.95-26.43,6.83-89.24,12.01-155.75,7.91-101.61,16.88-216.76,19.21-251.46,8.38-67.57,26.54-112.01,45.76-159.07,11-26.9,22.37-54.73,32.73-88.54l.08-.26c7.4-30.14-15.06-163.73-66.76-397.06-42.46-191.63-90.71-387-107.42-451.59-38.73-149.68-25.72-402.41-20.11-461.9,3.36-35.71-1.23-280.49-6.1-539.66-5.14-273.54-10.45-556.38-7.05-623.42l-9.62-.48c-2.08,40.91-.93,161.37,1.45,310.98l-.4-.08c-19.03,93.35-93.19,409.5-133.04,579.36-11.31,48.21-19.48,83.05-22.85,97.7-3.13,13.62-8.6,34.75-14.94,59.23-26.04,100.54-65.38,252.48-55.49,302.22,12.17,61.18,79.01,300.34,113.54,406.19,36.06,110.58,97.7,473.55,103.19,640.81,3.01,91.7,13.44,205.89,22.64,306.65,7.89,86.34,15.33,167.9,16.42,217.91,2.09,95.58-10.64,599.16-18.25,900.04-.95,37.91-1.82,72.15-2.55,101.32-6.24,250.09,25.45,408.01,53.76,517.64,14.31,55.44,62.03,230.75,108.18,400.29,41.15,151.19,80.02,293.99,93.41,345.13,27.78,106.19,117.37,719.25,136.22,858.08,17.09,125.82,108.82,642.28,127.47,717.69,11.04,44.61,15.1,105.11,19.03,163.62,2.81,41.9,5.47,81.48,10.53,113.94,6.34,40.74,34.93,183.26,62.57,321.08,25.83,128.79,50.23,250.44,56.64,289.44,13.15,79.94-99.86,232.2-179.55,291.92ZM1953.08,4441.65c-.78-22.93-.03-270.46.76-532.52.35-112.57.69-226.71.93-326.69,4.14,14.09,8.77,29.77,13.77,46.81,66.88,227.15,223.48,759.12,220.62,821.69-2.19,47.86-61.7,125.93-137.03,224.77-32.69,42.89-69.76,91.52-105.78,142.71-39,55.42-77.16,124.36-112.29,197.46,47.25-126.11,79.58-246.01,94.19-350.1.8-5.67,1.8-12.61,2.94-20.49,8.14-56.61,23.31-161.98,21.88-203.65Z"/>
  <g>
    <path class="cls-1" d="M2585.76,4639.56l-9.22-2.79c.06-.21,6.75-23.15,13.68-96.98l9.59.9c-7.07,75.19-13.77,97.94-14.05,98.87Z"/>
    <path class="cls-1" d="M2914.36,3737.66c-8.18,0-16.65-.31-25.35-1.01-45.85-3.67-111.06-19.31-161.35-72.97l7.03-6.59c48.19,51.41,110.94,66.42,155.09,69.95,54.21,4.34,98.89-6.47,115.7-14.79l1.45-.72c39.68-19.61,160.42-79.28,158.77-239.49l9.63-.1c.73,70.83-21.69,131.12-66.65,179.19-36.26,38.77-77.61,59.21-97.48,69.03l-1.45.71c-15.02,7.43-50.79,16.76-95.39,16.76Z"/>
    <path class="cls-1" d="M2287.99,3749.22c-44.61,0-80.37-9.33-95.39-16.76l-1.45-.72c-19.87-9.82-61.22-30.26-97.48-69.03-44.96-48.07-67.38-108.36-66.65-179.19l9.63.1c-1.65,160.21,119.09,219.88,158.77,239.49l1.45.72c16.81,8.32,61.5,19.12,115.7,14.79,44.15-3.53,106.9-18.54,155.09-69.95l7.03,6.59c-50.29,53.66-115.5,69.3-161.35,72.97-8.7.7-17.17,1.01-25.35,1.01Z"/>
    <path class="cls-1" d="M2503.59,2889.94c-8.04-4.02-15.56-11.37-25.09-20.69-9.74-9.53-21.87-21.38-38.18-32.81-8.87-6.22-33.88-8.5-74.33-6.78-36.2,1.54-78.71,5.99-116.22,9.9-32.12,3.36-59.87,6.25-76.22,6.54l-.17-9.63c15.94-.28,43.49-3.16,75.39-6.49,37.65-3.93,80.32-8.39,116.81-9.95,43.81-1.87,69.32.84,80.27,8.51,16.95,11.88,29.39,24.04,39.38,33.81,8.92,8.72,15.97,15.62,22.66,18.96l-4.31,8.62Z"/>
    <path class="cls-1" d="M2657.91,2888.78l-7.29-6.29c3.83-4.44,7.36-10.54,11.1-17,8.76-15.15,19.66-34,42.2-45.49,22.81-11.63,142.77-6.92,253.43-1.59,23.5,1.13,42.05,2.02,47.69,1.93l.17,9.63c-5.95.11-23.72-.75-48.33-1.94-73.4-3.54-226.14-10.89-248.59.55-20,10.19-29.68,26.95-38.23,41.73-3.97,6.87-7.72,13.35-12.14,18.47Z"/>
    <path class="cls-1" d="M2246.79,7763.55l-9.08-3.22c9.17-25.87,16.19-48.66,22.98-70.7,7.01-22.77,14.27-46.32,23.79-72.87l9.07,3.25c-9.45,26.35-16.67,49.79-23.65,72.45-6.82,22.14-13.87,45.02-23.11,71.09Z"/>
    <path class="cls-1" d="M2115.02,7766.27c-1.99-4.59-3.93-9.08-5.86-13.54-14.91-34.5-28.99-67.09-60.48-132.26l8.67-4.19c31.58,65.35,45.7,98.03,60.65,132.63,1.92,4.46,3.86,8.94,5.85,13.52l-8.84,3.83Z"/>
    <path class="cls-1" d="M3261.45,7918.89l-9.63-.23c.96-41,3.84-87.09,10.61-170.07l9.6.78c-6.75,82.78-9.62,128.72-10.58,169.51Z"/>
    <path class="cls-1" d="M3146.74,7958.3c-16.72-20.01-31.01-38.02-46.13-57.1-18.4-23.21-37.43-47.2-61.73-75.78l7.34-6.24c24.4,28.7,43.48,52.76,61.94,76.03,15.09,19.03,29.33,37,45.97,56.91l-7.39,6.18Z"/>
    <path class="cls-1" d="M1781.62,4626.29c-10.66-13.26-18.86-35.27-23.11-61.99-3.95-24.84-3.95-50.38-.01-70.08l9.45,1.89c-7.39,36.97.1,97.91,21.19,124.15l-7.51,6.04Z"/>
    <path class="cls-1" d="M3403.16,4636.31l-6.81-6.81c14.09-14.09,44.82-74.77,44.82-104.48h9.63c0,31.56-30.57,94.21-47.65,111.29Z"/>
  </g>
</svg>